<?xml version="1.0" encoding="UTF-8"?>
<svg xmlns="http://www.w3.org/2000/svg" xmlns:xlink="http://www.w3.org/1999/xlink" width="236pt" height="177pt" viewBox="0 0 236 177" version="1.1">
<g id="surface1">
<path style=" stroke:none;fill-rule:nonzero;fill:rgb(0%,0%,0%);fill-opacity:1;" d="M 65.839844 70.375 C 65.488281 70.847656 63.9375 71.621094 62.691406 71.964844 L 61.402344 72.324219 L 61.402344 73.210938 C 61.402344 74.472656 62.039062 75.324219 63.28125 75.75 C 64.703125 76.207031 65.796875 76.042969 66.953125 75.160156 C 67.871094 74.488281 68.394531 73.554688 68.394531 72.667969 C 68.375 71.996094 67.675781 70.914062 66.976562 70.503906 C 66.277344 70.078125 66.078125 70.0625 65.839844 70.375 Z M 65.839844 70.375 "/>
<path style=" stroke:none;fill-rule:nonzero;fill:rgb(0%,0%,0%);fill-opacity:1;" d="M 129.210938 70.324219 C 128.359375 70.519531 127.460938 71.292969 127.265625 72.027344 C 126.980469 73.160156 128.554688 74.570312 130.128906 74.570312 C 131.65625 74.570312 133.207031 73.242188 132.992188 72.128906 C 132.707031 70.75 131 69.929688 129.210938 70.324219 Z M 129.210938 70.324219 "/>
<path style=" stroke:none;fill-rule:nonzero;fill:rgb(0%,0%,0%);fill-opacity:1;" d="M 49.886719 71.226562 C 49.429688 71.703125 49.277344 72.046875 49.210938 72.863281 C 49.101562 74.125 49.386719 74.71875 50.414062 75.390625 C 51.023438 75.796875 51.328125 75.878906 52.3125 75.878906 C 54.324219 75.878906 55.917969 74.667969 55.941406 73.128906 C 55.941406 72.503906 55.898438 72.4375 55.371094 72.4375 C 54.105469 72.4375 52.835938 72.0625 51.8125 71.355469 C 51.222656 70.964844 50.695312 70.636719 50.628906 70.636719 C 50.566406 70.636719 50.238281 70.898438 49.886719 71.226562 Z M 49.886719 71.226562 "/>
<path style=" stroke:none;fill-rule:nonzero;fill:rgb(0%,0%,0%);fill-opacity:1;" d="M 76.351562 76.160156 C 76.089844 76.191406 75.695312 76.371094 75.476562 76.570312 C 75.105469 76.863281 75.0625 77.191406 75.0625 79.585938 C 75.0625 82.796875 75.039062 82.746094 77.378906 82.894531 L 78.996094 83.007812 L 78.996094 85.632812 L 77.113281 85.679688 L 75.214844 85.730469 L 75.410156 86.417969 C 75.871094 87.992188 75.605469 87.84375 77.859375 87.84375 C 80.175781 87.84375 81.398438 87.632812 81.726562 87.1875 C 81.855469 87.023438 81.945312 85.679688 81.945312 84.171875 C 81.945312 80.960938 81.945312 80.960938 79.476562 80.960938 L 77.988281 80.960938 L 78.054688 79.601562 L 78.121094 78.257812 L 80.042969 78.207031 C 81.746094 78.175781 81.964844 78.125 81.855469 77.878906 C 81.792969 77.734375 81.683594 77.257812 81.59375 76.816406 L 81.464844 76.042969 L 79.125 76.0625 C 77.859375 76.078125 76.589844 76.125 76.351562 76.160156 Z M 76.351562 76.160156 "/>
<path style=" stroke:none;fill-rule:nonzero;fill:rgb(0%,0%,0%);fill-opacity:1;" d="M 86.511719 81.894531 L 85.089844 87.761719 L 86.488281 87.8125 C 87.253906 87.84375 87.953125 87.828125 88.019531 87.777344 C 88.085938 87.730469 88.195312 87.402344 88.257812 87.074219 C 88.390625 86.453125 88.414062 86.453125 89.503906 86.402344 C 90.511719 86.351562 90.640625 86.386719 90.773438 86.730469 C 90.839844 86.941406 90.902344 87.269531 90.902344 87.46875 C 90.902344 87.828125 90.992188 87.84375 92.433594 87.84375 C 93.503906 87.84375 93.964844 87.777344 93.964844 87.632812 C 93.964844 87.53125 93.328125 84.894531 92.585938 81.78125 L 91.210938 76.125 L 89.570312 76.078125 L 87.933594 76.027344 Z M 90.007812 82.304688 C 90.355469 84.632812 90.378906 84.566406 89.460938 84.566406 C 88.761719 84.566406 88.675781 84.535156 88.785156 84.191406 C 88.851562 83.992188 89.023438 83.074219 89.175781 82.140625 C 89.332031 81.207031 89.503906 80.519531 89.59375 80.585938 C 89.679688 80.648438 89.855469 81.4375 90.007812 82.304688 Z M 90.007812 82.304688 "/>
<path style=" stroke:none;fill-rule:nonzero;fill:rgb(0%,0%,0%);fill-opacity:1;" d="M 96.0625 76.929688 C 95.578125 78.160156 95.578125 78.175781 96.695312 78.175781 L 97.679688 78.175781 L 97.679688 87.84375 L 100.738281 87.84375 L 100.738281 78.175781 L 102.878906 78.175781 L 102.527344 77.140625 L 102.15625 76.125 L 99.273438 76.078125 L 96.410156 76.027344 Z M 96.0625 76.929688 "/>
<path style=" stroke:none;fill-rule:nonzero;fill:rgb(0%,0%,0%);fill-opacity:1;" d="M 106.332031 76.929688 C 105.851562 78.160156 105.851562 78.175781 106.964844 78.175781 L 107.949219 78.175781 L 107.949219 87.84375 L 111.007812 87.84375 L 111.007812 78.175781 L 113.148438 78.175781 L 112.800781 77.140625 L 112.429688 76.125 L 109.542969 76.078125 L 106.679688 76.027344 Z M 106.332031 76.929688 "/>
<path style=" stroke:none;fill-rule:nonzero;fill:rgb(0%,0%,0%);fill-opacity:1;" d="M 117.058594 79.929688 C 117.605469 82.074219 118.242188 84.714844 118.503906 85.796875 L 118.984375 87.761719 L 120.558594 87.8125 C 122.042969 87.859375 122.152344 87.84375 122.261719 87.484375 C 122.328125 87.269531 123.003906 84.617188 123.746094 81.566406 L 125.125 76.042969 L 122.019531 76.042969 L 121.410156 79.519531 C 121.082031 81.4375 120.753906 83.15625 120.664062 83.335938 C 120.601562 83.519531 120.230469 81.960938 119.878906 79.894531 L 119.203125 76.125 L 117.648438 76.078125 L 116.097656 76.027344 Z M 117.058594 79.929688 "/>
<path style=" stroke:none;fill-rule:nonzero;fill:rgb(0%,0%,0%);fill-opacity:1;" d="M 128.269531 81.945312 L 128.269531 87.84375 L 131.328125 87.84375 L 131.328125 76.042969 L 128.269531 76.042969 Z M 128.269531 81.945312 "/>
<path style=" stroke:none;fill-rule:nonzero;fill:rgb(0%,0%,0%);fill-opacity:1;" d="M 135.917969 76.257812 C 134.890625 76.652344 134.824219 76.960938 134.824219 81.828125 C 134.824219 87.074219 134.890625 87.386719 136.289062 87.664062 C 136.75 87.761719 137.929688 87.84375 138.914062 87.84375 C 140.921875 87.84375 140.683594 87.992188 141.140625 86.402344 L 141.335938 85.714844 L 138.105469 85.714844 L 138.105469 78.175781 L 141.316406 78.175781 L 141.074219 77.140625 L 140.835938 76.125 L 138.648438 76.078125 C 137.207031 76.0625 136.289062 76.109375 135.917969 76.257812 Z M 135.917969 76.257812 "/>
<path style=" stroke:none;fill-rule:nonzero;fill:rgb(0%,0%,0%);fill-opacity:1;" d="M 151.082031 76.160156 C 150.820312 76.191406 150.429688 76.371094 150.210938 76.570312 C 149.839844 76.863281 149.792969 77.191406 149.792969 79.585938 C 149.792969 82.796875 149.773438 82.746094 152.109375 82.894531 L 153.726562 83.007812 L 153.726562 85.632812 L 151.847656 85.679688 L 149.949219 85.730469 L 150.144531 86.417969 C 150.601562 87.992188 150.339844 87.84375 152.589844 87.84375 C 154.90625 87.84375 156.132812 87.632812 156.460938 87.1875 C 156.589844 87.023438 156.679688 85.679688 156.679688 84.171875 C 156.679688 80.960938 156.679688 80.960938 154.207031 80.960938 L 152.722656 80.960938 L 152.789062 79.601562 L 152.855469 78.257812 L 154.777344 78.207031 C 156.480469 78.175781 156.699219 78.125 156.589844 77.878906 C 156.523438 77.734375 156.414062 77.257812 156.328125 76.816406 L 156.195312 76.042969 L 153.859375 76.0625 C 152.589844 76.078125 151.324219 76.125 151.082031 76.160156 Z M 151.082031 76.160156 "/>
<path style=" stroke:none;fill-rule:nonzero;fill:rgb(0%,0%,0%);fill-opacity:1;" d="M 161.574219 76.160156 C 161.308594 76.191406 160.917969 76.371094 160.699219 76.570312 C 160.328125 76.863281 160.285156 77.289062 160.21875 81.519531 C 160.128906 86.796875 160.21875 87.253906 161.375 87.613281 C 162.25 87.878906 165.789062 87.925781 166.925781 87.679688 C 168.257812 87.402344 168.238281 87.433594 168.257812 81.976562 C 168.257812 79.042969 168.171875 76.878906 168.039062 76.699219 C 167.929688 76.535156 167.515625 76.324219 167.144531 76.226562 C 166.488281 76.0625 162.578125 76.011719 161.574219 76.160156 Z M 165.089844 81.945312 L 165.089844 85.796875 L 163.34375 85.796875 L 163.277344 82.109375 C 163.253906 80.09375 163.277344 78.324219 163.34375 78.207031 C 163.40625 78.058594 163.734375 78.011719 164.261719 78.042969 L 165.089844 78.09375 Z M 165.089844 81.945312 "/>
<path style=" stroke:none;fill-rule:nonzero;fill:rgb(0%,0%,0%);fill-opacity:1;" d="M 171.972656 81.207031 C 171.972656 87.140625 172.019531 87.371094 173.4375 87.664062 C 174.488281 87.894531 177.742188 87.894531 178.769531 87.679688 C 179.273438 87.582031 179.644531 87.371094 179.796875 87.089844 C 179.972656 86.8125 180.058594 85.042969 180.058594 81.371094 L 180.058594 76.042969 L 177 76.042969 L 176.957031 80.910156 L 176.890625 85.796875 L 176.277344 85.84375 C 175.035156 85.960938 175.035156 85.941406 175.035156 80.78125 L 175.035156 76.042969 L 171.972656 76.042969 Z M 171.972656 81.207031 "/>
<path style=" stroke:none;fill-rule:nonzero;fill:rgb(0%,0%,0%);fill-opacity:1;" d="M 183.554688 81.945312 L 183.554688 87.84375 L 189.410156 87.84375 L 189.542969 87.222656 C 189.628906 86.894531 189.738281 86.417969 189.804688 86.15625 L 189.9375 85.714844 L 186.832031 85.714844 L 186.832031 76.042969 L 183.554688 76.042969 Z M 183.554688 81.945312 "/>
<path style=" stroke:none;fill-rule:nonzero;fill:rgb(0%,0%,0%);fill-opacity:1;" d="M 48.140625 78.160156 C 47.308594 78.550781 46.480469 79.566406 46.019531 80.796875 C 45.539062 82.042969 45.015625 84.335938 45.015625 85.171875 C 45.015625 85.730469 44.90625 85.925781 44.382812 86.238281 C 44.03125 86.453125 41.800781 87.941406 39.421875 89.566406 C 37.015625 91.1875 34.570312 92.84375 33.980469 93.238281 C 33.367188 93.628906 33.039062 93.890625 33.214844 93.808594 C 33.5625 93.664062 39.617188 89.976562 42.65625 88.058594 C 43.683594 87.402344 44.601562 86.859375 44.664062 86.859375 C 44.730469 86.859375 44.796875 88.386719 44.796875 90.253906 L 44.796875 93.664062 L 42 95.792969 C 37.957031 98.875 36.054688 101.183594 36.054688 102.972656 C 36.078125 104.625 37.804688 106.035156 39.835938 106.035156 C 43.660156 106.035156 46.019531 102.199219 46.675781 94.957031 L 46.828125 93.300781 L 49.582031 91.582031 C 51.089844 90.628906 53.339844 89.1875 54.5625 88.367188 C 55.789062 87.53125 56.835938 86.859375 56.925781 86.859375 C 56.988281 86.859375 57.035156 88.433594 56.988281 90.335938 L 56.925781 93.828125 L 54.390625 95.710938 C 50.304688 98.757812 48.53125 100.808594 48.335938 102.773438 C 48.226562 104.035156 48.488281 104.542969 49.800781 105.429688 C 51.285156 106.429688 53.078125 106.398438 54.761719 105.316406 C 56.945312 103.90625 58.34375 100.398438 58.914062 94.808594 L 59.066406 93.335938 L 62.472656 91.074219 C 66.210938 88.582031 70.210938 85.78125 69.140625 86.386719 C 68.769531 86.597656 67.042969 87.664062 65.316406 88.746094 C 61.6875 91.023438 59.328125 92.433594 59.132812 92.433594 C 59.066406 92.433594 59 90.941406 59 89.105469 L 59 85.78125 L 60.441406 84.730469 C 64.089844 82.042969 65.402344 79.535156 63.65625 78.503906 C 61.601562 77.289062 59.546875 77.996094 58.453125 80.304688 C 57.90625 81.4375 57.25 83.894531 57.25 84.796875 C 57.25 85.566406 57.1875 85.664062 56.117188 86.433594 C 55.132812 87.15625 48.292969 91.582031 47.15625 92.253906 C 46.785156 92.464844 46.761719 92.285156 46.761719 89.15625 L 46.761719 85.863281 L 48.46875 84.515625 C 50.433594 82.976562 51.460938 81.910156 51.898438 80.945312 C 52.53125 79.601562 52.203125 78.667969 50.871094 78.160156 C 49.84375 77.765625 49.015625 77.765625 48.140625 78.160156 Z M 50.957031 78.945312 C 51.527344 79.320312 51.460938 80.238281 50.804688 81.222656 C 50.214844 82.109375 47.527344 84.566406 47.15625 84.566406 C 46.9375 84.566406 47.003906 84.042969 47.570312 81.945312 C 48.269531 79.273438 49.648438 78.058594 50.957031 78.945312 Z M 63.152344 79.078125 C 63.808594 79.601562 63.65625 80.503906 62.714844 81.683594 C 61.863281 82.746094 59.546875 84.699219 59.328125 84.535156 C 59.132812 84.402344 59.699219 81.960938 60.203125 80.667969 C 60.574219 79.730469 61.664062 78.667969 62.257812 78.667969 C 62.472656 78.667969 62.867188 78.847656 63.152344 79.078125 Z M 44.25 97.054688 C 43.417969 101.511719 41.519531 104.59375 39.378906 105.003906 C 38.613281 105.132812 37.78125 104.773438 37.300781 104.070312 C 36.472656 102.890625 37.214844 101.070312 39.332031 98.957031 C 40.621094 97.695312 44.335938 94.808594 44.511719 94.957031 C 44.578125 95.007812 44.46875 95.957031 44.25 97.054688 Z M 56.597656 96.382812 C 55.589844 102.199219 52.945312 105.886719 50.5 104.871094 C 48.46875 104.035156 48.925781 101.546875 51.570312 98.972656 C 52.574219 98.003906 56.640625 94.859375 56.769531 94.957031 C 56.816406 94.988281 56.726562 95.644531 56.597656 96.382812 Z M 56.597656 96.382812 "/>
<path style=" stroke:none;fill-rule:nonzero;fill:rgb(0%,0%,0%);fill-opacity:1;" d="M 74.84375 91.449219 C 74.777344 91.546875 74.84375 91.648438 74.996094 91.695312 C 75.585938 91.859375 189.894531 91.695312 189.957031 91.53125 C 190.023438 91.300781 75.039062 91.21875 74.84375 91.449219 Z M 74.84375 91.449219 "/>
<path style=" stroke:none;fill-rule:nonzero;fill:rgb(0%,0%,0%);fill-opacity:1;" d="M 74.84375 92.597656 C 74.777344 92.695312 74.84375 92.792969 74.996094 92.84375 C 75.585938 93.007812 189.894531 92.84375 189.957031 92.679688 C 190.023438 92.449219 75.039062 92.367188 74.84375 92.597656 Z M 74.84375 92.597656 "/>
<path style=" stroke:none;fill-rule:nonzero;fill:rgb(0%,0%,0%);fill-opacity:1;" d="M 74.734375 97.921875 L 74.734375 101.609375 L 76.679688 101.609375 L 76.742188 100.085938 L 76.808594 98.578125 L 77.53125 98.53125 C 78.164062 98.480469 78.230469 98.433594 78.230469 97.90625 C 78.230469 97.382812 78.1875 97.351562 77.464844 97.351562 L 76.699219 97.351562 L 76.699219 95.546875 L 77.792969 95.546875 C 78.558594 95.546875 78.839844 95.480469 78.796875 95.335938 C 78.730469 95.234375 78.644531 94.941406 78.578125 94.679688 C 78.449219 94.234375 78.425781 94.234375 76.589844 94.234375 L 74.734375 94.234375 Z M 74.734375 97.921875 "/>
<path style=" stroke:none;fill-rule:nonzero;fill:rgb(0%,0%,0%);fill-opacity:1;" d="M 86.96875 94.5625 C 86.554688 94.875 86.535156 95.105469 86.535156 97.921875 C 86.535156 101.628906 86.511719 101.609375 89.003906 101.609375 C 91.625 101.609375 91.558594 101.710938 91.558594 97.921875 C 91.558594 94.136719 91.625 94.234375 89.003906 94.234375 C 87.691406 94.234375 87.320312 94.300781 86.96875 94.5625 Z M 89.703125 97.921875 L 89.703125 100.21875 L 89.113281 100.265625 L 88.5 100.316406 L 88.5 95.53125 L 89.113281 95.578125 L 89.703125 95.628906 Z M 89.703125 97.921875 "/>
<path style=" stroke:none;fill-rule:nonzero;fill:rgb(0%,0%,0%);fill-opacity:1;" d="M 99.425781 97.5625 C 99.425781 100.183594 99.492188 100.957031 99.730469 101.21875 C 99.992188 101.480469 100.320312 101.527344 101.894531 101.527344 C 103.117188 101.527344 103.839844 101.464844 104.082031 101.300781 C 104.40625 101.101562 104.453125 100.644531 104.453125 97.660156 L 104.453125 94.234375 L 102.484375 94.234375 L 102.484375 100.300781 L 101.394531 100.300781 L 101.394531 94.234375 L 99.425781 94.234375 Z M 99.425781 97.5625 "/>
<path style=" stroke:none;fill-rule:nonzero;fill:rgb(0%,0%,0%);fill-opacity:1;" d="M 112.320312 97.90625 L 112.320312 101.609375 L 114.042969 101.609375 L 114.109375 100.085938 L 114.175781 98.578125 L 114.699219 100.085938 L 115.203125 101.609375 L 117.125 101.609375 L 117.125 94.234375 L 115.378906 94.234375 L 115.378906 95.742188 C 115.378906 96.5625 115.3125 97.1875 115.226562 97.121094 C 115.117188 97.054688 114.851562 96.398438 114.613281 95.660156 L 114.152344 94.316406 L 113.234375 94.269531 L 112.320312 94.21875 Z M 112.320312 97.90625 "/>
<path style=" stroke:none;fill-rule:nonzero;fill:rgb(0%,0%,0%);fill-opacity:1;" d="M 125.210938 97.941406 L 125.210938 101.644531 L 127.394531 101.578125 C 128.792969 101.546875 129.667969 101.445312 129.84375 101.316406 C 130.0625 101.167969 130.148438 100.265625 130.191406 98.003906 C 130.28125 94.121094 130.367188 94.234375 127.285156 94.234375 L 125.210938 94.234375 Z M 128.269531 97.921875 L 128.269531 100.300781 L 127.179688 100.300781 L 127.179688 95.546875 L 128.269531 95.546875 Z M 128.269531 97.921875 "/>
<path style=" stroke:none;fill-rule:nonzero;fill:rgb(0%,0%,0%);fill-opacity:1;" d="M 139.414062 94.285156 C 139.414062 94.300781 139.019531 95.941406 138.539062 97.921875 C 138.058594 99.90625 137.667969 101.546875 137.667969 101.5625 C 137.667969 101.59375 138.105469 101.609375 138.648438 101.609375 C 139.589844 101.609375 139.632812 101.59375 139.632812 101.121094 C 139.632812 100.675781 139.699219 100.628906 140.375 100.628906 C 141.03125 100.628906 141.140625 100.691406 141.273438 101.121094 C 141.402344 101.5625 141.492188 101.609375 142.277344 101.609375 C 142.734375 101.609375 143.128906 101.527344 143.128906 101.429688 C 143.128906 101.203125 141.601562 94.890625 141.46875 94.515625 C 141.382812 94.300781 141.121094 94.234375 140.375 94.234375 C 139.851562 94.234375 139.414062 94.253906 139.414062 94.285156 Z M 140.8125 98.546875 C 140.921875 99.316406 140.878906 99.511719 140.59375 99.59375 C 140.003906 99.757812 139.894531 99.429688 140.136719 98.1875 C 140.375 96.859375 140.574219 96.957031 140.8125 98.546875 Z M 140.8125 98.546875 "/>
<path style=" stroke:none;fill-rule:nonzero;fill:rgb(0%,0%,0%);fill-opacity:1;" d="M 150.035156 94.628906 C 149.96875 94.84375 149.839844 95.136719 149.773438 95.285156 C 149.664062 95.5 149.792969 95.546875 150.320312 95.546875 L 150.996094 95.546875 L 150.996094 101.609375 L 152.964844 101.609375 L 152.964844 95.546875 L 153.53125 95.546875 C 154.054688 95.546875 154.097656 95.5 153.96875 95.039062 C 153.902344 94.761719 153.835938 94.464844 153.835938 94.382812 C 153.835938 94.300781 153.007812 94.234375 152 94.234375 C 150.253906 94.234375 150.164062 94.253906 150.035156 94.628906 Z M 150.035156 94.628906 "/>
<path style=" stroke:none;fill-rule:nonzero;fill:rgb(0%,0%,0%);fill-opacity:1;" d="M 161.921875 97.921875 L 161.921875 101.609375 L 163.890625 101.609375 L 163.890625 94.234375 L 161.921875 94.234375 Z M 161.921875 97.921875 "/>
<path style=" stroke:none;fill-rule:nonzero;fill:rgb(0%,0%,0%);fill-opacity:1;" d="M 171.972656 94.5625 C 171.558594 94.875 171.535156 95.105469 171.535156 97.921875 C 171.535156 101.628906 171.515625 101.609375 174.007812 101.609375 C 176.628906 101.609375 176.5625 101.710938 176.5625 97.921875 C 176.5625 94.136719 176.628906 94.234375 174.007812 94.234375 C 172.695312 94.234375 172.324219 94.300781 171.972656 94.5625 Z M 174.707031 97.921875 L 174.707031 100.21875 L 174.117188 100.265625 L 173.503906 100.316406 L 173.503906 95.53125 L 174.117188 95.578125 L 174.707031 95.628906 Z M 174.707031 97.921875 "/>
<path style=" stroke:none;fill-rule:nonzero;fill:rgb(0%,0%,0%);fill-opacity:1;" d="M 184.648438 97.90625 L 184.648438 101.609375 L 186.375 101.609375 L 186.441406 100.085938 L 186.503906 98.578125 L 187.03125 100.085938 L 187.53125 101.609375 L 189.457031 101.609375 L 189.457031 94.234375 L 187.707031 94.234375 L 187.707031 95.742188 C 187.707031 96.5625 187.640625 97.1875 187.554688 97.121094 C 187.445312 97.054688 187.183594 96.398438 186.941406 95.660156 L 186.484375 94.316406 L 185.566406 94.269531 L 184.648438 94.21875 Z M 184.648438 97.90625 "/>
<path style=" stroke:none;fill-rule:nonzero;fill:rgb(0%,0%,0%);fill-opacity:1;" d="M 74.863281 104.003906 C 74.363281 104.363281 74.425781 104.644531 75.171875 105.265625 C 75.890625 105.886719 76 106.199219 75.5 106.199219 C 75.324219 106.199219 75.171875 106.085938 75.171875 105.953125 C 75.171875 105.824219 75.015625 105.707031 74.84375 105.707031 C 74.296875 105.707031 74.472656 106.347656 75.0625 106.5625 C 75.476562 106.707031 75.695312 106.691406 76.152344 106.460938 C 76.875 106.117188 76.851562 105.839844 76.042969 105.167969 C 75.390625 104.59375 75.214844 104.234375 75.605469 104.234375 C 75.738281 104.234375 75.824219 104.347656 75.824219 104.480469 C 75.824219 104.609375 75.980469 104.726562 76.152344 104.726562 C 76.589844 104.726562 76.589844 103.972656 76.132812 103.839844 C 75.585938 103.675781 75.214844 103.726562 74.863281 104.003906 Z M 74.863281 104.003906 "/>
<path style=" stroke:none;fill-rule:nonzero;fill:rgb(0%,0%,0%);fill-opacity:1;" d="M 79.300781 105.214844 C 78.972656 106.625 78.972656 106.691406 79.367188 106.691406 C 79.585938 106.691406 79.757812 106.578125 79.757812 106.445312 C 79.757812 106.316406 79.957031 106.199219 80.195312 106.199219 C 80.4375 106.199219 80.632812 106.316406 80.632812 106.445312 C 80.632812 106.578125 80.785156 106.691406 80.960938 106.691406 C 81.355469 106.691406 81.355469 106.5625 81.046875 105.28125 C 80.722656 103.855469 80.65625 103.742188 80.109375 103.742188 C 79.671875 103.742188 79.605469 103.871094 79.300781 105.214844 Z M 80.394531 105.25 C 80.414062 105.511719 80.328125 105.707031 80.195312 105.707031 C 80.085938 105.707031 79.976562 105.363281 80 104.921875 C 80 104.347656 80.066406 104.234375 80.195312 104.480469 C 80.304688 104.660156 80.394531 105.003906 80.394531 105.25 Z M 80.394531 105.25 "/>
<path style=" stroke:none;fill-rule:nonzero;fill:rgb(0%,0%,0%);fill-opacity:1;" d="M 83.691406 105.199219 C 83.691406 106.414062 83.757812 106.691406 84.019531 106.691406 C 84.261719 106.691406 84.347656 106.480469 84.371094 105.824219 L 84.390625 104.972656 L 84.761719 105.789062 C 84.980469 106.265625 85.308594 106.625 85.507812 106.660156 C 85.835938 106.707031 85.878906 106.527344 85.878906 105.234375 C 85.878906 104.019531 85.8125 103.742188 85.550781 103.742188 C 85.308594 103.742188 85.222656 103.953125 85.199219 104.59375 L 85.179688 105.460938 L 84.808594 104.644531 C 84.589844 104.167969 84.261719 103.808594 84.0625 103.773438 C 83.734375 103.726562 83.691406 103.90625 83.691406 105.199219 Z M 83.691406 105.199219 "/>
<path style=" stroke:none;fill-rule:nonzero;fill:rgb(0%,0%,0%);fill-opacity:1;" d="M 89.375 104.972656 C 89.375 105.675781 89.285156 106.199219 89.15625 106.199219 C 89.046875 106.199219 88.9375 106.050781 88.9375 105.871094 C 88.9375 105.691406 88.785156 105.542969 88.609375 105.542969 C 88.148438 105.542969 88.171875 106.460938 88.632812 106.59375 C 89.789062 106.921875 90.25 106.480469 90.25 104.953125 C 90.25 103.855469 90.203125 103.742188 89.8125 103.742188 C 89.417969 103.742188 89.375 103.855469 89.375 104.972656 Z M 89.375 104.972656 "/>
<path style=" stroke:none;fill-rule:nonzero;fill:rgb(0%,0%,0%);fill-opacity:1;" d="M 92.433594 105.214844 L 92.433594 106.691406 L 93.417969 106.691406 C 94.136719 106.691406 94.398438 106.625 94.398438 106.445312 C 94.398438 106.296875 94.203125 106.199219 93.855469 106.199219 C 93.460938 106.199219 93.308594 106.117188 93.308594 105.871094 C 93.308594 105.660156 93.460938 105.542969 93.746094 105.542969 C 93.984375 105.542969 94.179688 105.429688 94.179688 105.296875 C 94.179688 105.167969 93.984375 105.054688 93.746094 105.054688 C 93.417969 105.054688 93.308594 104.9375 93.308594 104.644531 C 93.308594 104.347656 93.417969 104.234375 93.746094 104.234375 C 93.984375 104.234375 94.179688 104.117188 94.179688 103.988281 C 94.179688 103.808594 93.941406 103.742188 93.308594 103.742188 L 92.433594 103.742188 Z M 92.433594 105.214844 "/>
<path style=" stroke:none;fill-rule:nonzero;fill:rgb(0%,0%,0%);fill-opacity:1;" d="M 96.804688 105.214844 L 96.804688 106.691406 L 97.785156 106.691406 C 98.507812 106.691406 98.769531 106.625 98.769531 106.445312 C 98.769531 106.296875 98.574219 106.199219 98.222656 106.199219 C 97.832031 106.199219 97.679688 106.117188 97.679688 105.871094 C 97.679688 105.660156 97.832031 105.542969 98.113281 105.542969 C 98.355469 105.542969 98.550781 105.429688 98.550781 105.296875 C 98.550781 105.167969 98.355469 105.054688 98.113281 105.054688 C 97.785156 105.054688 97.679688 104.9375 97.679688 104.644531 C 97.679688 104.347656 97.785156 104.234375 98.113281 104.234375 C 98.355469 104.234375 98.550781 104.117188 98.550781 103.988281 C 98.550781 103.808594 98.3125 103.742188 97.679688 103.742188 L 96.804688 103.742188 Z M 96.804688 105.214844 "/>
<path style=" stroke:none;fill-rule:nonzero;fill:rgb(0%,0%,0%);fill-opacity:1;" d="M 101.042969 104.347656 C 101.109375 104.691406 101.238281 105.363281 101.304688 105.824219 C 101.4375 106.578125 101.523438 106.691406 101.9375 106.691406 C 102.375 106.691406 102.441406 106.5625 102.746094 105.214844 C 103.054688 103.808594 103.054688 103.742188 102.660156 103.742188 C 102.355469 103.742188 102.265625 103.871094 102.246094 104.347656 C 102.222656 104.691406 102.136719 105.152344 102.046875 105.378906 C 101.894531 105.742188 101.875 105.707031 101.851562 105.132812 C 101.808594 104.199219 101.609375 103.742188 101.238281 103.742188 C 100.976562 103.742188 100.933594 103.871094 101.042969 104.347656 Z M 101.042969 104.347656 "/>
<path style=" stroke:none;fill-rule:nonzero;fill:rgb(0%,0%,0%);fill-opacity:1;" d="M 105.523438 105.214844 C 105.195312 106.625 105.195312 106.691406 105.589844 106.691406 C 105.808594 106.691406 105.980469 106.578125 105.980469 106.445312 C 105.980469 106.316406 106.179688 106.199219 106.417969 106.199219 C 106.660156 106.199219 106.855469 106.316406 106.855469 106.445312 C 106.855469 106.578125 107.007812 106.691406 107.183594 106.691406 C 107.578125 106.691406 107.578125 106.5625 107.269531 105.28125 C 106.941406 103.855469 106.878906 103.742188 106.332031 103.742188 C 105.894531 103.742188 105.828125 103.871094 105.523438 105.214844 Z M 106.613281 105.25 C 106.636719 105.511719 106.550781 105.707031 106.417969 105.707031 C 106.308594 105.707031 106.199219 105.363281 106.222656 104.921875 C 106.222656 104.347656 106.289062 104.234375 106.417969 104.480469 C 106.527344 104.660156 106.613281 105.003906 106.613281 105.25 Z M 106.613281 105.25 "/>
<path style=" stroke:none;fill-rule:nonzero;fill:rgb(0%,0%,0%);fill-opacity:1;" d="M 109.914062 105.199219 C 109.914062 106.414062 109.980469 106.691406 110.242188 106.691406 C 110.484375 106.691406 110.570312 106.480469 110.59375 105.824219 L 110.613281 104.972656 L 110.984375 105.789062 C 111.203125 106.265625 111.53125 106.625 111.730469 106.660156 C 112.054688 106.707031 112.101562 106.527344 112.101562 105.234375 C 112.101562 104.019531 112.035156 103.742188 111.773438 103.742188 C 111.53125 103.742188 111.445312 103.953125 111.421875 104.59375 L 111.402344 105.460938 L 111.027344 104.644531 C 110.8125 104.167969 110.484375 103.808594 110.285156 103.773438 C 109.957031 103.726562 109.914062 103.90625 109.914062 105.199219 Z M 109.914062 105.199219 "/>
<path style=" stroke:none;fill-rule:nonzero;fill:rgb(0%,0%,0%);fill-opacity:1;" d="M 114.503906 105.214844 C 114.503906 106.578125 114.527344 106.691406 114.941406 106.691406 C 115.355469 106.691406 115.378906 106.578125 115.378906 105.214844 C 115.378906 103.855469 115.355469 103.742188 114.941406 103.742188 C 114.527344 103.742188 114.503906 103.855469 114.503906 105.214844 Z M 114.503906 105.214844 "/>
<path style=" stroke:none;fill-rule:nonzero;fill:rgb(0%,0%,0%);fill-opacity:1;" d="M 120.839844 105.214844 C 120.839844 106.578125 120.863281 106.691406 121.277344 106.691406 C 121.628906 106.691406 121.714844 106.578125 121.714844 106.117188 C 121.714844 105.726562 121.824219 105.542969 122.042969 105.542969 C 122.21875 105.542969 122.371094 105.429688 122.371094 105.296875 C 122.371094 105.167969 122.21875 105.054688 122.042969 105.054688 C 121.847656 105.054688 121.714844 104.90625 121.714844 104.644531 C 121.714844 104.347656 121.824219 104.234375 122.152344 104.234375 C 122.390625 104.234375 122.589844 104.117188 122.589844 103.988281 C 122.589844 103.808594 122.347656 103.742188 121.714844 103.742188 L 120.839844 103.742188 Z M 120.839844 105.214844 "/>
<path style=" stroke:none;fill-rule:nonzero;fill:rgb(0%,0%,0%);fill-opacity:1;" d="M 125.386719 103.855469 C 124.90625 103.953125 124.730469 104.429688 124.816406 105.460938 C 124.863281 106.132812 124.972656 106.316406 125.453125 106.511719 C 125.976562 106.722656 126.085938 106.722656 126.609375 106.480469 C 127.113281 106.214844 127.179688 106.085938 127.179688 105.214844 C 127.179688 104.398438 127.089844 104.21875 126.695312 104.003906 C 126.195312 103.742188 126.0625 103.726562 125.386719 103.855469 Z M 126.304688 105.214844 C 126.304688 105.988281 126.238281 106.199219 125.976562 106.199219 C 125.714844 106.199219 125.648438 105.988281 125.648438 105.214844 C 125.648438 104.445312 125.714844 104.234375 125.976562 104.234375 C 126.238281 104.234375 126.304688 104.445312 126.304688 105.214844 Z M 126.304688 105.214844 "/>
<path style=" stroke:none;fill-rule:nonzero;fill:rgb(0%,0%,0%);fill-opacity:1;" d="M 129.363281 105.214844 C 129.363281 106.578125 129.386719 106.691406 129.800781 106.691406 C 130.148438 106.691406 130.238281 106.578125 130.238281 106.117188 C 130.238281 105.398438 130.628906 105.363281 130.71875 106.070312 C 130.761719 106.429688 130.914062 106.625 131.175781 106.660156 C 131.460938 106.707031 131.546875 106.59375 131.546875 106.132812 C 131.546875 105.824219 131.4375 105.511719 131.328125 105.460938 C 131.175781 105.398438 131.175781 105.265625 131.328125 105.054688 C 131.855469 104.332031 131.285156 103.742188 130.105469 103.742188 L 129.363281 103.742188 Z M 130.675781 104.644531 C 130.675781 104.871094 130.585938 105.054688 130.457031 105.054688 C 130.347656 105.054688 130.238281 104.871094 130.238281 104.644531 C 130.238281 104.414062 130.347656 104.234375 130.457031 104.234375 C 130.585938 104.234375 130.675781 104.414062 130.675781 104.644531 Z M 130.675781 104.644531 "/>
<path style=" stroke:none;fill-rule:nonzero;fill:rgb(0%,0%,0%);fill-opacity:1;" d="M 137.578125 104.019531 C 137.425781 104.429688 137.011719 106.214844 137.011719 106.480469 C 137.011719 106.59375 137.164062 106.691406 137.339844 106.691406 C 137.515625 106.691406 137.667969 106.578125 137.667969 106.445312 C 137.667969 106.316406 137.863281 106.199219 138.105469 106.199219 C 138.34375 106.199219 138.539062 106.316406 138.539062 106.445312 C 138.539062 106.578125 138.714844 106.691406 138.933594 106.691406 C 139.328125 106.691406 139.328125 106.625 139 105.214844 C 138.695312 103.871094 138.628906 103.742188 138.191406 103.742188 C 137.90625 103.742188 137.644531 103.871094 137.578125 104.019531 Z M 138.320312 104.972656 C 138.320312 105.378906 138.234375 105.707031 138.105469 105.707031 C 137.863281 105.707031 137.796875 104.90625 138.015625 104.496094 C 138.234375 104.070312 138.320312 104.199219 138.320312 104.972656 Z M 138.320312 104.972656 "/>
<path style=" stroke:none;fill-rule:nonzero;fill:rgb(0%,0%,0%);fill-opacity:1;" d="M 144.660156 105.214844 L 144.660156 106.691406 L 145.535156 106.691406 C 146.167969 106.691406 146.40625 106.625 146.40625 106.445312 C 146.40625 106.316406 146.210938 106.199219 145.96875 106.199219 C 145.578125 106.199219 145.535156 106.085938 145.535156 104.972656 C 145.535156 103.855469 145.488281 103.742188 145.097656 103.742188 C 144.679688 103.742188 144.660156 103.855469 144.660156 105.214844 Z M 144.660156 105.214844 "/>
<path style=" stroke:none;fill-rule:nonzero;fill:rgb(0%,0%,0%);fill-opacity:1;" d="M 148.59375 105.214844 C 148.59375 106.578125 148.613281 106.691406 149.03125 106.691406 C 149.445312 106.691406 149.464844 106.578125 149.464844 105.214844 C 149.464844 103.855469 149.445312 103.742188 149.03125 103.742188 C 148.613281 103.742188 148.59375 103.855469 148.59375 105.214844 Z M 148.59375 105.214844 "/>
<path style=" stroke:none;fill-rule:nonzero;fill:rgb(0%,0%,0%);fill-opacity:1;" d="M 151.871094 103.988281 C 151.871094 104.117188 151.980469 104.234375 152.089844 104.234375 C 152.21875 104.234375 152.308594 104.757812 152.308594 105.460938 C 152.308594 106.578125 152.351562 106.691406 152.746094 106.691406 C 153.136719 106.691406 153.179688 106.578125 153.179688 105.460938 C 153.179688 104.757812 153.269531 104.234375 153.398438 104.234375 C 153.53125 104.234375 153.617188 104.117188 153.617188 103.988281 C 153.617188 103.808594 153.378906 103.742188 152.746094 103.742188 C 152.109375 103.742188 151.871094 103.808594 151.871094 103.988281 Z M 151.871094 103.988281 "/>
<path style=" stroke:none;fill-rule:nonzero;fill:rgb(0%,0%,0%);fill-opacity:1;" d="M 155.804688 103.988281 C 155.804688 104.117188 155.914062 104.234375 156.023438 104.234375 C 156.152344 104.234375 156.242188 104.757812 156.242188 105.460938 C 156.242188 106.578125 156.285156 106.691406 156.679688 106.691406 C 157.070312 106.691406 157.113281 106.578125 157.113281 105.460938 C 157.113281 104.757812 157.203125 104.234375 157.332031 104.234375 C 157.464844 104.234375 157.550781 104.117188 157.550781 103.988281 C 157.550781 103.808594 157.3125 103.742188 156.679688 103.742188 C 156.042969 103.742188 155.804688 103.808594 155.804688 103.988281 Z M 155.804688 103.988281 "/>
<path style=" stroke:none;fill-rule:nonzero;fill:rgb(0%,0%,0%);fill-opacity:1;" d="M 159.738281 105.214844 L 159.738281 106.691406 L 160.609375 106.691406 C 161.246094 106.691406 161.484375 106.625 161.484375 106.445312 C 161.484375 106.316406 161.289062 106.199219 161.046875 106.199219 C 160.65625 106.199219 160.609375 106.085938 160.609375 104.972656 C 160.609375 103.855469 160.566406 103.742188 160.175781 103.742188 C 159.757812 103.742188 159.738281 103.855469 159.738281 105.214844 Z M 159.738281 105.214844 "/>
<path style=" stroke:none;fill-rule:nonzero;fill:rgb(0%,0%,0%);fill-opacity:1;" d="M 163.671875 105.214844 L 163.671875 106.691406 L 164.652344 106.691406 C 165.375 106.691406 165.636719 106.625 165.636719 106.445312 C 165.636719 106.296875 165.441406 106.199219 165.089844 106.199219 C 164.699219 106.199219 164.542969 106.117188 164.542969 105.871094 C 164.542969 105.660156 164.699219 105.542969 164.980469 105.542969 C 165.222656 105.542969 165.417969 105.429688 165.417969 105.296875 C 165.417969 105.167969 165.222656 105.054688 164.980469 105.054688 C 164.652344 105.054688 164.542969 104.9375 164.542969 104.644531 C 164.542969 104.347656 164.652344 104.234375 164.980469 104.234375 C 165.222656 104.234375 165.417969 104.117188 165.417969 103.988281 C 165.417969 103.808594 165.179688 103.742188 164.542969 103.742188 L 163.671875 103.742188 Z M 163.671875 105.214844 "/>
<path style=" stroke:none;fill-rule:nonzero;fill:rgb(0%,0%,0%);fill-opacity:1;" d="M 171.449219 104.003906 C 170.945312 104.363281 171.011719 104.644531 171.753906 105.265625 C 172.128906 105.578125 172.410156 105.921875 172.410156 106.019531 C 172.410156 106.28125 171.972656 106.234375 171.84375 105.953125 C 171.667969 105.644531 171.101562 105.625 171.101562 105.9375 C 171.101562 106.265625 171.710938 106.691406 172.191406 106.691406 C 172.671875 106.691406 173.285156 106.265625 173.285156 105.953125 C 173.285156 105.824219 173 105.460938 172.628906 105.167969 C 172.28125 104.855469 171.972656 104.511719 171.972656 104.414062 C 171.972656 104.152344 172.410156 104.199219 172.542969 104.480469 C 172.71875 104.789062 173.285156 104.808594 173.285156 104.496094 C 173.285156 104.167969 172.671875 103.742188 172.191406 103.742188 C 171.972656 103.742188 171.625 103.855469 171.449219 104.003906 Z M 171.449219 104.003906 "/>
<path style=" stroke:none;fill-rule:nonzero;fill:rgb(0%,0%,0%);fill-opacity:1;" d="M 175.6875 105.214844 C 175.6875 106.414062 175.753906 106.691406 176.015625 106.691406 C 176.277344 106.691406 176.34375 106.460938 176.34375 105.609375 C 176.34375 104.300781 176.671875 104.363281 176.867188 105.707031 C 177.066406 107.003906 177.457031 106.921875 177.785156 105.527344 L 178.050781 104.480469 L 178.070312 105.578125 C 178.09375 106.445312 178.15625 106.691406 178.421875 106.691406 C 178.683594 106.691406 178.75 106.414062 178.75 105.214844 C 178.75 103.757812 178.75 103.742188 178.222656 103.742188 C 177.765625 103.742188 177.65625 103.855469 177.480469 104.429688 L 177.285156 105.132812 L 177.109375 104.429688 C 176.957031 103.808594 176.890625 103.742188 176.324219 103.742188 L 175.6875 103.742188 Z M 175.6875 105.214844 "/>
<path style=" stroke:none;fill-rule:nonzero;fill:rgb(0%,0%,0%);fill-opacity:1;" d="M 181.152344 105.214844 C 181.152344 106.578125 181.171875 106.691406 181.589844 106.691406 C 182.003906 106.691406 182.027344 106.578125 182.027344 105.214844 C 182.027344 103.855469 182.003906 103.742188 181.589844 103.742188 C 181.171875 103.742188 181.152344 103.855469 181.152344 105.214844 Z M 181.152344 105.214844 "/>
<path style=" stroke:none;fill-rule:nonzero;fill:rgb(0%,0%,0%);fill-opacity:1;" d="M 184.429688 105.214844 L 184.429688 106.691406 L 185.304688 106.691406 C 185.9375 106.691406 186.179688 106.625 186.179688 106.445312 C 186.179688 106.316406 185.980469 106.199219 185.742188 106.199219 C 185.347656 106.199219 185.304688 106.085938 185.304688 104.972656 C 185.304688 103.855469 185.261719 103.742188 184.867188 103.742188 C 184.453125 103.742188 184.429688 103.855469 184.429688 105.214844 Z M 184.429688 105.214844 "/>
<path style=" stroke:none;fill-rule:nonzero;fill:rgb(0%,0%,0%);fill-opacity:1;" d="M 188.363281 105.214844 L 188.363281 106.691406 L 189.347656 106.691406 C 190.066406 106.691406 190.328125 106.625 190.328125 106.445312 C 190.328125 106.296875 190.132812 106.199219 189.785156 106.199219 C 189.390625 106.199219 189.238281 106.117188 189.238281 105.871094 C 189.238281 105.660156 189.390625 105.542969 189.675781 105.542969 C 189.914062 105.542969 190.109375 105.429688 190.109375 105.296875 C 190.109375 105.167969 189.914062 105.054688 189.675781 105.054688 C 189.347656 105.054688 189.238281 104.9375 189.238281 104.644531 C 189.238281 104.347656 189.347656 104.234375 189.675781 104.234375 C 189.914062 104.234375 190.109375 104.117188 190.109375 103.988281 C 190.109375 103.808594 189.871094 103.742188 189.238281 103.742188 L 188.363281 103.742188 Z M 188.363281 105.214844 "/>
</g>
</svg>
