<?xml version="1.0" standalone="no"?>
<!DOCTYPE svg PUBLIC "-//W3C//DTD SVG 20010904//EN"
 "http://www.w3.org/TR/2001/REC-SVG-20010904/DTD/svg10.dtd">
<svg version="1.0" xmlns="http://www.w3.org/2000/svg"
 width="1080.000000pt" height="1080.000000pt" viewBox="0 0 1080.000000 1080.000000"
 preserveAspectRatio="xMidYMid meet">

<g transform="translate(0.000000,1080.000000) scale(0.100000,-0.100000)"
fill="#000000" stroke="none">
<path d="M3013 6506 c-16 -29 -87 -76 -144 -97 l-59 -22 0 -54 c0 -77 29 -129
86 -155 65 -28 115 -18 168 36 42 41 66 98 66 152 -1 41 -33 107 -65 132 -32
26 -41 27 -52 8z"/>
<path d="M5913 6509 c-39 -12 -80 -59 -89 -104 -13 -69 59 -155 131 -155 70 0
141 81 131 149 -13 84 -91 134 -173 110z"/>
<path d="M2283 6454 c-21 -29 -28 -50 -31 -100 -5 -77 8 -113 55 -154 28 -25
42 -30 87 -30 92 0 165 74 166 168 0 38 -2 42 -26 42 -58 0 -116 23 -163 66
-27 24 -51 44 -54 44 -3 0 -18 -16 -34 -36z"/>
<path d="M3494 6153 c-12 -2 -30 -13 -40 -25 -17 -18 -19 -38 -19 -184 0 -196
-1 -193 106 -202 l74 -7 0 -80 0 -80 -86 -3 -87 -3 9 -42 c21 -96 9 -87 112
-87 106 0 162 13 177 40 6 10 10 92 10 184 0 196 0 196 -113 196 l-68 0 3 83
3 82 88 3 c78 2 88 5 83 20 -3 9 -8 38 -12 65 l-6 47 -107 -1 c-58 -1 -116 -4
-127 -6z"/>
<path d="M3959 5803 l-65 -358 64 -3 c35 -2 67 -1 70 2 3 3 8 23 11 43 6 38 7
38 57 41 46 3 52 1 58 -20 3 -13 6 -33 6 -45 0 -22 4 -23 70 -23 49 0 70 4 70
13 0 6 -29 167 -63 357 l-63 345 -75 3 -75 3 -65 -358z m160 -25 c16 -142 17
-138 -25 -138 -32 0 -36 2 -31 23 3 12 11 68 18 125 7 57 15 99 19 95 4 -4 12
-52 19 -105z"/>
<path d="M4396 6106 c-22 -75 -22 -76 29 -76 l45 0 0 -295 0 -295 70 0 70 0 0
295 0 295 49 0 49 0 -16 63 -17 62 -132 3 -131 3 -16 -55z"/>
<path d="M4866 6106 c-22 -75 -22 -76 29 -76 l45 0 0 -295 0 -295 70 0 70 0 0
295 0 295 49 0 49 0 -16 63 -17 62 -132 3 -131 3 -16 -55z"/>
<path d="M5357 5923 c25 -131 54 -292 66 -358 l22 -120 72 -3 c68 -3 73 -2 78
20 3 13 34 175 68 361 l63 337 -71 0 -71 0 -28 -212 c-15 -117 -30 -222 -34
-233 -3 -11 -20 84 -36 210 l-31 230 -71 3 -71 3 44 -238z"/>
<path d="M5870 5800 l0 -360 70 0 70 0 0 360 0 360 -70 0 -70 0 0 -360z"/>
<path d="M6220 6147 c-47 -24 -50 -43 -50 -340 0 -320 3 -339 67 -356 21 -6
75 -11 120 -11 92 0 81 -9 102 88 l9 42 -74 0 -74 0 0 230 0 230 74 0 73 0
-11 63 -11 62 -100 3 c-66 1 -108 -2 -125 -11z"/>
<path d="M6914 6153 c-12 -2 -30 -13 -40 -25 -17 -18 -19 -38 -19 -184 0 -196
-1 -193 106 -202 l74 -7 0 -80 0 -80 -86 -3 -87 -3 9 -42 c21 -96 9 -87 112
-87 106 0 162 13 177 40 6 10 10 92 10 184 0 196 0 196 -113 196 l-68 0 3 83
3 82 88 3 c78 2 88 5 83 20 -3 9 -8 38 -12 65 l-6 47 -107 -1 c-58 -1 -116 -4
-127 -6z"/>
<path d="M7394 6153 c-12 -2 -30 -13 -40 -25 -17 -18 -19 -44 -22 -302 -4
-322 0 -350 53 -372 40 -16 202 -19 254 -4 61 17 60 15 61 348 0 179 -4 311
-10 322 -5 10 -24 23 -41 29 -30 10 -209 13 -255 4z m161 -353 l0 -235 -40 0
-40 0 -3 225 c-1 123 0 231 3 238 3 9 18 12 42 10 l38 -3 0 -235z"/>
<path d="M7870 5845 c0 -362 2 -376 67 -394 48 -14 197 -14 244 -1 23 6 40 19
47 36 8 17 12 125 12 349 l0 325 -70 0 -70 0 -2 -297 -3 -298 -28 -3 c-57 -7
-57 -6 -57 309 l0 289 -70 0 -70 0 0 -315z"/>
<path d="M8400 5800 l0 -360 134 0 134 0 6 38 c4 20 9 49 12 65 l6 27 -71 0
-71 0 0 295 0 295 -75 0 -75 0 0 -360z"/>
<path d="M2203 6031 c-38 -24 -76 -86 -97 -161 -22 -76 -46 -216 -46 -267 0
-34 -5 -46 -29 -65 -16 -13 -118 -104 -227 -203 -110 -99 -222 -200 -249 -224
-28 -24 -43 -40 -35 -35 16 9 293 234 432 351 47 40 89 73 92 73 3 0 6 -93 6
-207 l0 -208 -128 -130 c-185 -188 -272 -329 -272 -438 1 -101 80 -187 173
-187 175 0 283 234 313 676 l7 101 126 105 c69 58 172 146 228 196 56 51 104
92 108 92 3 0 5 -96 3 -212 l-3 -213 -116 -115 c-187 -186 -268 -311 -277
-431 -5 -77 7 -108 67 -162 68 -61 150 -59 227 7 100 86 164 300 190 641 l7
90 156 138 c171 152 354 323 305 286 -17 -13 -96 -78 -175 -144 -166 -139
-274 -225 -283 -225 -3 0 -6 91 -6 203 l0 203 66 64 c167 164 227 317 147 380
-94 74 -188 31 -238 -110 -25 -69 -55 -219 -55 -274 0 -47 -3 -53 -52 -100
-45 -44 -358 -314 -410 -355 -17 -13 -18 -2 -18 189 l0 201 78 82 c90 94 137
159 157 218 29 82 14 139 -47 170 -47 24 -85 24 -125 0z m129 -48 c26 -23 23
-79 -7 -139 -27 -54 -150 -204 -167 -204 -10 0 -7 32 19 160 32 163 95 237
155 183z m558 -8 c30 -32 23 -87 -20 -159 -39 -65 -145 -184 -155 -174 -9 8
17 157 40 236 17 57 67 122 94 122 10 0 28 -11 41 -25z m-865 -1097 c-38 -272
-125 -460 -223 -485 -35 -8 -73 14 -95 57 -38 72 -4 183 93 312 59 77 229 253
237 244 3 -3 -2 -61 -12 -128z m565 41 c-46 -355 -167 -580 -279 -518 -93 51
-72 203 49 360 46 59 232 251 238 245 2 -2 -2 -42 -8 -87z"/>
<path d="M3425 5220 c-3 -6 0 -12 7 -15 27 -10 5258 0 5261 10 3 14 -5259 19
-5268 5z"/>
<path d="M3425 5150 c-3 -6 0 -12 7 -15 27 -10 5258 0 5261 10 3 14 -5259 19
-5268 5z"/>
<path d="M3420 4825 l0 -225 45 0 44 0 3 93 3 92 33 3 c29 3 32 6 32 38 0 32
-2 34 -35 34 l-35 0 0 55 0 55 50 0 c35 0 48 4 46 13 -3 6 -7 24 -10 40 -6 27
-7 27 -91 27 l-85 0 0 -225z"/>
<path d="M3980 5030 c-19 -19 -20 -33 -20 -205 0 -226 -1 -225 113 -225 120 0
117 -6 117 225 0 231 3 225 -117 225 -60 0 -77 -4 -93 -20z m125 -205 l0 -140
-27 -3 -28 -3 0 146 0 146 28 -3 27 -3 0 -140z"/>
<path d="M4550 4847 c0 -160 3 -207 14 -223 12 -16 27 -19 99 -19 56 0 89 4
100 14 15 12 17 40 17 222 l0 209 -45 0 -45 0 0 -185 0 -185 -25 0 -25 0 0
185 0 185 -45 0 -45 0 0 -203z"/>
<path d="M5140 4826 l0 -226 40 0 39 0 3 93 3 92 24 -92 23 -93 44 0 44 0 0
225 0 225 -40 0 -40 0 0 -92 c0 -50 -3 -88 -7 -84 -5 4 -17 44 -28 89 l-21 82
-42 3 -42 3 0 -225z"/>
<path d="M5730 4824 l0 -226 100 4 c64 2 104 8 112 16 10 9 14 64 16 202 4
237 8 230 -133 230 l-95 0 0 -226z m140 1 l0 -145 -25 0 -25 0 0 145 0 145 25
0 25 0 0 -145z"/>
<path d="M6380 5047 c0 -1 -18 -101 -40 -222 -22 -121 -40 -221 -40 -222 0 -2
20 -3 45 -3 43 0 45 1 45 30 0 27 3 30 34 30 30 0 35 -4 41 -30 6 -27 10 -30
46 -30 21 0 39 5 39 11 0 14 -70 399 -76 422 -4 13 -16 17 -50 17 -24 0 -44
-1 -44 -3z m64 -260 c5 -47 3 -59 -10 -64 -27 -10 -32 10 -21 86 11 81 20 75
31 -22z"/>
<path d="M6866 5026 c-3 -13 -9 -31 -12 -40 -5 -13 1 -16 25 -16 l31 0 0 -185
0 -185 45 0 45 0 0 185 0 185 26 0 c24 0 26 3 20 31 -3 17 -6 35 -6 40 0 5
-38 9 -84 9 -80 0 -84 -1 -90 -24z"/>
<path d="M7410 4825 l0 -225 45 0 45 0 0 225 0 225 -45 0 -45 0 0 -225z"/>
<path d="M7870 5030 c-19 -19 -20 -33 -20 -205 0 -226 -1 -225 113 -225 120 0
117 -6 117 225 0 231 3 225 -117 225 -60 0 -77 -4 -93 -20z m125 -205 l0 -140
-27 -3 -28 -3 0 146 0 146 28 -3 27 -3 0 -140z"/>
<path d="M8450 4826 l0 -226 40 0 39 0 3 93 3 92 24 -92 23 -93 44 0 44 0 0
225 0 225 -40 0 -40 0 0 -92 c0 -50 -3 -88 -7 -84 -5 4 -17 44 -28 89 l-21 82
-42 3 -42 3 0 -225z"/>
<path d="M3426 4454 c-23 -22 -20 -39 14 -77 33 -38 38 -57 15 -57 -8 0 -15 7
-15 15 0 8 -7 15 -15 15 -25 0 -17 -39 10 -52 19 -9 29 -8 50 6 33 21 32 38
-5 79 -30 35 -38 57 -20 57 6 0 10 -7 10 -15 0 -8 7 -15 15 -15 20 0 20 46 -1
54 -25 10 -42 7 -58 -10z"/>
<path d="M3629 4380 c-15 -86 -15 -90 3 -90 10 0 18 7 18 15 0 8 9 15 20 15
11 0 20 -7 20 -15 0 -8 7 -15 15 -15 18 0 18 8 4 86 -15 87 -18 94 -43 94 -20
0 -23 -8 -37 -90z m50 -2 c1 -16 -3 -28 -9 -28 -5 0 -10 21 -9 48 0 35 3 42 9
27 5 -11 9 -32 9 -47z"/>
<path d="M3830 4381 c0 -74 3 -91 15 -91 11 0 15 13 16 53 l1 52 17 -50 c10
-29 25 -51 34 -53 15 -3 17 8 17 87 0 74 -3 91 -15 91 -11 0 -15 -13 -16 -52
l-1 -53 -17 50 c-10 29 -25 51 -34 53 -15 3 -17 -8 -17 -87z"/>
<path d="M4090 4395 c0 -43 -4 -75 -10 -75 -5 0 -10 9 -10 20 0 11 -7 20 -15
20 -21 0 -20 -56 1 -64 53 -20 74 7 74 100 0 67 -2 74 -20 74 -18 0 -20 -7
-20 -75z"/>
<path d="M4230 4380 l0 -90 45 0 c33 0 45 4 45 15 0 9 -9 15 -25 15 -18 0 -25
5 -25 20 0 13 7 20 20 20 11 0 20 7 20 15 0 8 -9 15 -20 15 -15 0 -20 7 -20
25 0 18 5 25 20 25 11 0 20 7 20 15 0 11 -11 15 -40 15 l-40 0 0 -90z"/>
<path d="M4430 4380 l0 -90 45 0 c33 0 45 4 45 15 0 9 -9 15 -25 15 -18 0 -25
5 -25 20 0 13 7 20 20 20 11 0 20 7 20 15 0 8 -9 15 -20 15 -15 0 -20 7 -20
25 0 18 5 25 20 25 11 0 20 7 20 15 0 11 -11 15 -40 15 l-40 0 0 -90z"/>
<path d="M4624 4433 c3 -21 9 -62 12 -90 6 -46 10 -53 29 -53 20 0 23 8 37 90
14 86 14 90 -4 90 -14 0 -18 -8 -19 -37 -1 -21 -5 -49 -9 -63 -7 -22 -8 -20
-9 15 -2 57 -11 85 -28 85 -12 0 -14 -8 -9 -37z"/>
<path d="M4829 4380 c-15 -86 -15 -90 3 -90 10 0 18 7 18 15 0 8 9 15 20 15
11 0 20 -7 20 -15 0 -8 7 -15 15 -15 18 0 18 8 4 86 -15 87 -18 94 -43 94 -20
0 -23 -8 -37 -90z m50 -2 c1 -16 -3 -28 -9 -28 -5 0 -10 21 -9 48 0 35 3 42 9
27 5 -11 9 -32 9 -47z"/>
<path d="M5030 4381 c0 -74 3 -91 15 -91 11 0 15 13 16 53 l1 52 17 -50 c10
-29 25 -51 34 -53 15 -3 17 8 17 87 0 74 -3 91 -15 91 -11 0 -15 -13 -16 -52
l-1 -53 -17 50 c-10 29 -25 51 -34 53 -15 3 -17 -8 -17 -87z"/>
<path d="M5240 4380 c0 -83 1 -90 20 -90 19 0 20 7 20 90 0 83 -1 90 -20 90
-19 0 -20 -7 -20 -90z"/>
<path d="M5530 4380 c0 -83 1 -90 20 -90 16 0 20 7 20 35 0 24 5 35 15 35 8 0
15 7 15 15 0 8 -7 15 -15 15 -9 0 -15 9 -15 25 0 18 5 25 20 25 11 0 20 7 20
15 0 11 -11 15 -40 15 l-40 0 0 -90z"/>
<path d="M5738 4463 c-22 -6 -30 -35 -26 -98 2 -41 7 -52 29 -64 24 -13 29
-13 53 2 23 16 26 24 26 77 0 50 -4 61 -22 74 -23 16 -29 17 -60 9z m42 -83
c0 -47 -3 -60 -15 -60 -12 0 -15 13 -15 60 0 47 3 60 15 60 12 0 15 -13 15
-60z"/>
<path d="M5920 4380 c0 -83 1 -90 20 -90 16 0 20 7 20 35 0 44 18 46 22 3 2
-22 9 -34 21 -36 13 -3 17 4 17 32 0 19 -5 38 -10 41 -7 4 -7 12 0 25 24 44
-2 80 -56 80 l-34 0 0 -90z m60 35 c0 -14 -4 -25 -10 -25 -5 0 -10 11 -10 25
0 14 5 25 10 25 6 0 10 -11 10 -25z"/>
<path d="M6296 4453 c-7 -25 -26 -134 -26 -150 0 -7 7 -13 15 -13 8 0 15 7 15
15 0 8 9 15 20 15 11 0 20 -7 20 -15 0 -8 8 -15 18 -15 18 0 18 4 3 90 -14 82
-17 90 -37 90 -13 0 -25 -8 -28 -17z m34 -58 c0 -25 -4 -45 -10 -45 -11 0 -14
49 -4 74 10 26 14 18 14 -29z"/>
<path d="M6620 4380 l0 -90 40 0 c29 0 40 4 40 15 0 8 -9 15 -20 15 -18 0 -20
7 -20 75 0 68 -2 75 -20 75 -19 0 -20 -7 -20 -90z"/>
<path d="M6800 4380 c0 -83 1 -90 20 -90 19 0 20 7 20 90 0 83 -1 90 -20 90
-19 0 -20 -7 -20 -90z"/>
<path d="M6950 4455 c0 -8 5 -15 10 -15 6 0 10 -32 10 -75 0 -68 2 -75 20 -75
18 0 20 7 20 75 0 43 4 75 10 75 6 0 10 7 10 15 0 11 -11 15 -40 15 -29 0 -40
-4 -40 -15z"/>
<path d="M7130 4455 c0 -8 5 -15 10 -15 6 0 10 -32 10 -75 0 -68 2 -75 20 -75
18 0 20 7 20 75 0 43 4 75 10 75 6 0 10 7 10 15 0 11 -11 15 -40 15 -29 0 -40
-4 -40 -15z"/>
<path d="M7310 4380 l0 -90 40 0 c29 0 40 4 40 15 0 8 -9 15 -20 15 -18 0 -20
7 -20 75 0 68 -2 75 -20 75 -19 0 -20 -7 -20 -90z"/>
<path d="M7490 4380 l0 -90 45 0 c33 0 45 4 45 15 0 9 -9 15 -25 15 -18 0 -25
5 -25 20 0 13 7 20 20 20 11 0 20 7 20 15 0 8 -9 15 -20 15 -15 0 -20 7 -20
25 0 18 5 25 20 25 11 0 20 7 20 15 0 11 -11 15 -40 15 l-40 0 0 -90z"/>
<path d="M7846 4454 c-23 -22 -20 -39 14 -77 17 -19 30 -40 30 -46 0 -16 -20
-13 -26 4 -8 19 -34 20 -34 1 0 -20 28 -46 50 -46 22 0 50 26 50 45 0 8 -13
30 -30 48 -16 19 -30 40 -30 46 0 16 20 13 26 -4 8 -19 34 -20 34 -1 0 20 -28
46 -50 46 -10 0 -26 -7 -34 -16z"/>
<path d="M8040 4380 c0 -73 3 -90 15 -90 12 0 15 14 15 66 0 80 15 76 24 -6 9
-79 27 -74 42 11 l12 64 1 -67 c1 -53 4 -68 16 -68 12 0 15 17 15 90 0 89 0
90 -24 90 -21 0 -26 -7 -34 -42 l-9 -43 -8 43 c-7 38 -10 42 -36 42 l-29 0 0
-90z"/>
<path d="M8290 4380 c0 -83 1 -90 20 -90 19 0 20 7 20 90 0 83 -1 90 -20 90
-19 0 -20 -7 -20 -90z"/>
<path d="M8440 4380 l0 -90 40 0 c29 0 40 4 40 15 0 8 -9 15 -20 15 -18 0 -20
7 -20 75 0 68 -2 75 -20 75 -19 0 -20 -7 -20 -90z"/>
<path d="M8620 4380 l0 -90 45 0 c33 0 45 4 45 15 0 9 -9 15 -25 15 -18 0 -25
5 -25 20 0 13 7 20 20 20 11 0 20 7 20 15 0 8 -9 15 -20 15 -15 0 -20 7 -20
25 0 18 5 25 20 25 11 0 20 7 20 15 0 11 -11 15 -40 15 l-40 0 0 -90z"/>
</g>
</svg>
