<svg width="350" height="479" viewBox="0 0 350 479" fill="none" xmlns="http://www.w3.org/2000/svg">
<path d="M391.834 300.483L342.539 270.143L267.721 145.57L311.08 284.455L165.543 252.739L365.783 343.137L391.834 300.483Z" fill="#EAD5C0"/>
<path d="M276.365 139.385L269.828 136.69L267.133 143.227L273.67 145.922L276.365 139.385Z" fill="#EAD5C0"/>
<path d="M290.562 120.322L284.025 117.626L281.33 124.164L287.867 126.859L290.562 120.322Z" fill="#EAD5C0"/>
<path d="M304.761 101.258L298.223 98.5629L295.528 105.1L302.065 107.795L304.761 101.258Z" fill="#EAD5C0"/>
<path d="M287.112 100.021L280.575 97.3262L277.88 103.863L284.417 106.559L287.112 100.021Z" fill="#EAD5C0"/>
<path d="M269.464 98.7846L262.926 96.0895L260.231 102.627L266.769 105.322L269.464 98.7846Z" fill="#EAD5C0"/>
<path d="M251.979 108.948L245.442 106.253L242.747 112.791L249.284 115.486L251.979 108.948Z" fill="#EAD5C0"/>
<path d="M234.496 119.112L227.959 116.417L225.263 122.954L231.801 125.65L234.496 119.112Z" fill="#EAD5C0"/>
<path d="M273.535 113.462L266.998 110.767L264.303 117.304L270.84 119.999L273.535 113.462Z" fill="#EAD5C0"/>
<path d="M263.234 122.996L256.697 120.301L254.002 126.838L260.539 129.533L263.234 122.996Z" fill="#EAD5C0"/>
<path d="M252.933 132.53L246.396 129.835L243.701 136.372L250.238 139.067L252.933 132.53Z" fill="#EAD5C0"/>
<path d="M234.349 133.324L227.812 130.629L225.117 137.166L231.654 139.861L234.349 133.324Z" fill="#EAD5C0"/>
<path d="M215.765 134.118L209.228 131.423L206.533 137.96L213.07 140.656L215.765 134.118Z" fill="#EAD5C0"/>
<path d="M244.669 149.403L238.132 146.708L235.436 153.245L241.974 155.94L244.669 149.403Z" fill="#EAD5C0"/>
<path d="M264.499 143.766L257.962 141.071L255.266 147.608L261.804 150.303L264.499 143.766Z" fill="#EAD5C0"/>
<path d="M330.725 156.056L324.188 153.361L321.493 159.898L328.03 162.594L330.725 156.056Z" fill="#EAD5C0"/>
<path d="M344.923 136.993L338.385 134.298L335.69 140.835L342.228 143.53L344.923 136.993Z" fill="#EAD5C0"/>
<path d="M359.121 117.93L352.584 115.234L349.888 121.772L356.426 124.467L359.121 117.93Z" fill="#EAD5C0"/>
<path d="M341.473 116.693L334.935 113.998L332.24 120.535L338.777 123.23L341.473 116.693Z" fill="#EAD5C0"/>
<path d="M323.824 115.456L317.287 112.761L314.592 119.298L321.129 121.993L323.824 115.456Z" fill="#EAD5C0"/>
<path d="M306.34 125.62L299.802 122.925L297.107 129.462L303.645 132.157L306.34 125.62Z" fill="#EAD5C0"/>
<path d="M288.856 135.784L282.319 133.089L279.624 139.626L286.161 142.321L288.856 135.784Z" fill="#EAD5C0"/>
<path d="M327.895 130.134L321.358 127.438L318.663 133.976L325.2 136.671L327.895 130.134Z" fill="#EAD5C0"/>
<path d="M317.595 139.668L311.057 136.972L308.362 143.51L314.899 146.205L317.595 139.668Z" fill="#EAD5C0"/>
<path d="M307.294 149.202L300.757 146.506L298.061 153.044L304.599 155.739L307.294 149.202Z" fill="#EAD5C0"/>
<path d="M288.71 149.996L282.173 147.301L279.477 153.838L286.015 156.533L288.71 149.996Z" fill="#EAD5C0"/>
<path d="M270.126 150.79L263.589 148.095L260.893 154.632L267.431 157.327L270.126 150.79Z" fill="#EAD5C0"/>
<path d="M299.029 166.074L292.492 163.379L289.797 169.916L296.334 172.612L299.029 166.074Z" fill="#EAD5C0"/>
<path d="M318.859 160.438L312.322 157.743L309.627 164.28L316.164 166.975L318.859 160.438Z" fill="#EAD5C0"/>
<path d="M265.142 170.159L258.605 167.464L255.91 174.001L262.447 176.696L265.142 170.159Z" fill="#EAD5C0"/>
<path d="M279.34 151.096L272.802 148.401L270.107 154.938L276.645 157.633L279.34 151.096Z" fill="#EAD5C0"/>
<path d="M293.538 132.032L287.001 129.337L284.305 135.874L290.843 138.57L293.538 132.032Z" fill="#EAD5C0"/>
<path d="M275.889 130.796L269.352 128.1L266.657 134.638L273.194 137.333L275.889 130.796Z" fill="#EAD5C0"/>
<path d="M258.241 129.559L251.704 126.864L249.009 133.401L255.546 136.096L258.241 129.559Z" fill="#EAD5C0"/>
<path d="M240.757 139.723L234.219 137.028L231.524 143.565L238.062 146.26L240.757 139.723Z" fill="#EAD5C0"/>
<path d="M223.273 149.887L216.736 147.191L214.041 153.729L220.578 156.424L223.273 149.887Z" fill="#EAD5C0"/>
<path d="M262.312 144.236L255.775 141.541L253.08 148.078L259.617 150.774L262.312 144.236Z" fill="#EAD5C0"/>
<path d="M252.012 153.77L245.474 151.075L242.779 157.612L249.316 160.308L252.012 153.77Z" fill="#EAD5C0"/>
<path d="M241.711 163.304L235.174 160.609L232.478 167.146L239.016 169.842L241.711 163.304Z" fill="#EAD5C0"/>
<path d="M223.127 164.098L216.59 161.403L213.894 167.941L220.432 170.636L223.127 164.098Z" fill="#EAD5C0"/>
<path d="M204.543 164.893L198.006 162.198L195.31 168.735L201.848 171.43L204.543 164.893Z" fill="#EAD5C0"/>
<path d="M233.446 180.177L226.909 177.482L224.214 184.019L230.751 186.714L233.446 180.177Z" fill="#EAD5C0"/>
<path d="M253.276 174.541L246.739 171.845L244.044 178.383L250.581 181.078L253.276 174.541Z" fill="#EAD5C0"/>
<path d="M311.635 103.44L305.097 100.744L302.402 107.282L308.939 109.977L311.635 103.44Z" fill="#EAD5C0"/>
<path d="M325.832 84.3761L319.295 81.681L316.599 88.2182L323.137 90.9134L325.832 84.3761Z" fill="#EAD5C0"/>
<path d="M340.03 65.3128L333.493 62.6176L330.798 69.1549L337.335 71.8501L340.03 65.3128Z" fill="#EAD5C0"/>
<path d="M322.382 64.076L315.844 61.3809L313.149 67.9181L319.687 70.6133L322.382 64.076Z" fill="#EAD5C0"/>
<path d="M304.733 62.8393L298.196 60.1442L295.501 66.6814L302.038 69.3766L304.733 62.8393Z" fill="#EAD5C0"/>
<path d="M287.249 73.0032L280.712 70.308L278.016 76.8453L284.554 79.5404L287.249 73.0032Z" fill="#EAD5C0"/>
<path d="M269.765 83.167L263.228 80.4718L260.533 87.0091L267.07 89.7043L269.765 83.167Z" fill="#EAD5C0"/>
<path d="M308.805 77.5167L302.267 74.8215L299.572 81.3588L306.109 84.054L308.805 77.5167Z" fill="#EAD5C0"/>
<path d="M298.504 87.0507L291.966 84.3555L289.271 90.8928L295.809 93.588L298.504 87.0507Z" fill="#EAD5C0"/>
<path d="M288.203 96.5847L281.666 93.8895L278.971 100.427L285.508 103.122L288.203 96.5847Z" fill="#EAD5C0"/>
<path d="M269.619 97.3789L263.082 94.6837L260.387 101.221L266.924 103.916L269.619 97.3789Z" fill="#EAD5C0"/>
<path d="M251.035 98.1731L244.498 95.4779L241.803 102.015L248.34 104.71L251.035 98.1731Z" fill="#EAD5C0"/>
<path d="M279.938 113.457L273.401 110.762L270.706 117.299L277.243 119.995L279.938 113.457Z" fill="#EAD5C0"/>
<path d="M299.768 107.821L293.231 105.126L290.536 111.663L297.073 114.358L299.768 107.821Z" fill="#EAD5C0"/>
<path d="M252.911 100.514L246.374 97.8192L243.679 104.356L250.216 107.052L252.911 100.514Z" fill="#EAD5C0"/>
<path d="M267.108 81.451L260.571 78.7558L257.876 85.2931L264.413 87.9882L267.108 81.451Z" fill="#EAD5C0"/>
<path d="M281.306 62.3876L274.769 59.6924L272.074 66.2297L278.611 68.9249L281.306 62.3876Z" fill="#EAD5C0"/>
<path d="M263.658 61.1509L257.121 58.4557L254.426 64.993L260.963 67.6881L263.658 61.1509Z" fill="#EAD5C0"/>
<path d="M246.01 59.9142L239.472 57.219L236.777 63.7563L243.314 66.4514L246.01 59.9142Z" fill="#EAD5C0"/>
<path d="M228.525 70.078L221.988 67.3828L219.293 73.9201L225.83 76.6153L228.525 70.078Z" fill="#EAD5C0"/>
<path d="M211.042 80.2418L204.505 77.5466L201.809 84.0839L208.347 86.7791L211.042 80.2418Z" fill="#EAD5C0"/>
<path d="M250.081 74.5915L243.544 71.8964L240.848 78.4336L247.386 81.1288L250.081 74.5915Z" fill="#EAD5C0"/>
<path d="M239.78 84.1255L233.243 81.4304L230.548 87.9676L237.085 90.6628L239.78 84.1255Z" fill="#EAD5C0"/>
<path d="M229.479 93.6595L222.942 90.9643L220.247 97.5016L226.784 100.197L229.479 93.6595Z" fill="#EAD5C0"/>
<path d="M210.895 94.4538L204.358 91.7586L201.663 98.2959L208.2 100.991L210.895 94.4538Z" fill="#EAD5C0"/>
<path d="M192.311 95.248L185.774 92.5528L183.079 99.0901L189.616 101.785L192.311 95.248Z" fill="#EAD5C0"/>
<path d="M221.215 110.532L214.677 107.837L211.982 114.374L218.52 117.069L221.215 110.532Z" fill="#EAD5C0"/>
<path d="M241.045 104.896L234.507 102.201L231.812 108.738L238.35 111.433L241.045 104.896Z" fill="#EAD5C0"/>
<path d="M209.678 137.715L203.14 135.02L200.445 141.557L206.982 144.252L209.678 137.715Z" fill="#EAD5C0"/>
<path d="M223.875 118.651L217.338 115.956L214.642 122.493L221.18 125.189L223.875 118.651Z" fill="#EAD5C0"/>
<path d="M238.073 99.588L231.536 96.8928L228.841 103.43L235.378 106.125L238.073 99.588Z" fill="#EAD5C0"/>
<path d="M220.425 98.3513L213.887 95.6561L211.192 102.193L217.729 104.889L220.425 98.3513Z" fill="#EAD5C0"/>
<path d="M202.776 97.1145L196.239 94.4193L193.544 100.957L200.081 103.652L202.776 97.1145Z" fill="#EAD5C0"/>
<path d="M185.292 107.278L178.755 104.583L176.059 111.121L182.597 113.816L185.292 107.278Z" fill="#EAD5C0"/>
<path d="M167.808 117.442L161.271 114.747L158.576 121.284L165.113 123.98L167.808 117.442Z" fill="#EAD5C0"/>
<path d="M206.848 111.792L200.31 109.097L197.615 115.634L204.152 118.329L206.848 111.792Z" fill="#EAD5C0"/>
<path d="M196.547 121.326L190.009 118.631L187.314 125.168L193.852 127.863L196.547 121.326Z" fill="#EAD5C0"/>
<path d="M186.246 130.86L179.709 128.165L177.013 134.702L183.551 137.397L186.246 130.86Z" fill="#EAD5C0"/>
<path d="M167.662 131.654L161.125 128.959L158.43 135.496L164.967 138.191L167.662 131.654Z" fill="#EAD5C0"/>
<path d="M149.078 132.448L142.541 129.753L139.846 136.29L146.383 138.986L149.078 132.448Z" fill="#EAD5C0"/>
<path d="M177.981 147.733L171.444 145.037L168.749 151.575L175.286 154.27L177.981 147.733Z" fill="#EAD5C0"/>
<path d="M197.811 142.096L191.274 139.401L188.579 145.938L195.116 148.633L197.811 142.096Z" fill="#EAD5C0"/>
<path d="M171.499 239.959L165.044 242.845L167.929 249.3L174.385 246.415L171.499 239.959Z" fill="#EAD5C0"/>
<path d="M167.45 216.537L160.994 219.422L163.88 225.878L170.335 222.993L167.45 216.537Z" fill="#EAD5C0"/>
<path d="M163.4 193.115L156.944 196L159.83 202.456L166.285 199.57L163.4 193.115Z" fill="#EAD5C0"/>
<path d="M150.352 205.063L143.896 207.948L146.782 214.404L153.237 211.518L150.352 205.063Z" fill="#EAD5C0"/>
<path d="M137.304 217.011L130.849 219.896L133.734 226.352L140.19 223.466L137.304 217.011Z" fill="#EAD5C0"/>
<path d="M132.637 236.689L126.182 239.574L129.067 246.03L135.523 243.144L132.637 236.689Z" fill="#EAD5C0"/>
<path d="M127.97 256.367L121.515 259.252L124.4 265.708L130.856 262.822L127.97 256.367Z" fill="#EAD5C0"/>
<path d="M150.751 224.163L144.296 227.049L147.181 233.504L153.637 230.619L150.751 224.163Z" fill="#EAD5C0"/>
<path d="M150.574 238.198L144.118 241.083L147.004 247.539L153.459 244.654L150.574 238.198Z" fill="#EAD5C0"/>
<path d="M150.396 252.233L143.94 255.118L146.826 261.574L153.281 258.688L150.396 252.233Z" fill="#EAD5C0"/>
<path d="M138.177 266.257L131.722 269.143L134.607 275.598L141.063 272.713L138.177 266.257Z" fill="#EAD5C0"/>
<path d="M125.957 280.282L119.502 283.167L122.387 289.623L128.843 286.738L125.957 280.282Z" fill="#EAD5C0"/>
<path d="M156.943 269.844L150.487 272.729L153.373 279.185L159.828 276.299L156.943 269.844Z" fill="#EAD5C0"/>
<path d="M166.507 251.581L160.052 254.467L162.937 260.922L169.393 258.037L166.507 251.581Z" fill="#EAD5C0"/>
<path d="M137.901 209.217L131.445 212.102L134.331 218.558L140.786 215.673L137.901 209.217Z" fill="#EAD5C0"/>
<path d="M133.851 185.795L127.395 188.68L130.281 195.136L136.736 192.25L133.851 185.795Z" fill="#EAD5C0"/>
<path d="M129.801 162.373L123.346 165.258L126.231 171.714L132.687 168.828L129.801 162.373Z" fill="#EAD5C0"/>
<path d="M116.753 174.321L110.298 177.206L113.183 183.662L119.639 180.776L116.753 174.321Z" fill="#EAD5C0"/>
<path d="M103.705 186.269L97.2499 189.154L100.135 195.61L106.591 192.724L103.705 186.269Z" fill="#EAD5C0"/>
<path d="M99.0385 205.947L92.5829 208.832L95.4684 215.288L101.924 212.402L99.0385 205.947Z" fill="#EAD5C0"/>
<path d="M94.3715 225.624L87.9159 228.51L90.8014 234.966L97.2569 232.08L94.3715 225.624Z" fill="#EAD5C0"/>
<path d="M117.153 193.421L110.697 196.307L113.583 202.762L120.038 199.877L117.153 193.421Z" fill="#EAD5C0"/>
<path d="M116.975 207.456L110.519 210.341L113.405 216.797L119.86 213.911L116.975 207.456Z" fill="#EAD5C0"/>
<path d="M116.797 221.49L110.342 224.376L113.227 230.831L119.683 227.946L116.797 221.49Z" fill="#EAD5C0"/>
<path d="M104.579 235.515L98.123 238.401L101.008 244.856L107.464 241.971L104.579 235.515Z" fill="#EAD5C0"/>
<path d="M92.3588 249.54L85.9032 252.425L88.7887 258.881L95.2442 255.995L92.3588 249.54Z" fill="#EAD5C0"/>
<path d="M123.344 239.102L116.889 241.987L119.774 248.443L126.23 245.557L123.344 239.102Z" fill="#EAD5C0"/>
<path d="M132.909 220.839L126.453 223.725L129.338 230.18L135.794 227.295L132.909 220.839Z" fill="#EAD5C0"/>
<path d="M166.695 289.938L160.239 292.824L163.125 299.279L169.58 296.394L166.695 289.938Z" fill="#EAD5C0"/>
<path d="M162.645 266.516L156.189 269.402L159.075 275.857L165.53 272.972L162.645 266.516Z" fill="#EAD5C0"/>
<path d="M158.595 243.094L152.14 245.979L155.025 252.435L161.481 249.549L158.595 243.094Z" fill="#EAD5C0"/>
<path d="M145.547 255.042L139.092 257.927L141.977 264.383L148.433 261.497L145.547 255.042Z" fill="#EAD5C0"/>
<path d="M132.499 266.99L126.044 269.875L128.929 276.331L135.385 273.445L132.499 266.99Z" fill="#EAD5C0"/>
<path d="M127.832 286.668L121.377 289.553L124.262 296.009L130.718 293.123L127.832 286.668Z" fill="#EAD5C0"/>
<path d="M123.165 306.346L116.71 309.231L119.595 315.687L126.051 312.801L123.165 306.346Z" fill="#EAD5C0"/>
<path d="M145.947 274.143L139.491 277.028L142.377 283.484L148.832 280.598L145.947 274.143Z" fill="#EAD5C0"/>
<path d="M145.769 288.177L139.313 291.063L142.199 297.518L148.654 294.633L145.769 288.177Z" fill="#EAD5C0"/>
<path d="M145.591 302.212L139.136 305.097L142.021 311.553L148.477 308.667L145.591 302.212Z" fill="#EAD5C0"/>
<path d="M133.372 316.236L126.917 319.122L129.802 325.577L136.258 322.692L133.372 316.236Z" fill="#EAD5C0"/>
<path d="M121.153 330.261L114.697 333.147L117.583 339.602L124.038 336.717L121.153 330.261Z" fill="#EAD5C0"/>
<path d="M152.138 319.823L145.683 322.708L148.568 329.164L155.024 326.278L152.138 319.823Z" fill="#EAD5C0"/>
<path d="M161.703 301.561L155.247 304.446L158.132 310.902L164.588 308.016L161.703 301.561Z" fill="#EAD5C0"/>
<path d="M203.562 303.967L197.106 306.853L199.992 313.308L206.447 310.423L203.562 303.967Z" fill="#EAD5C0"/>
<path d="M199.512 280.545L193.057 283.431L195.942 289.886L202.398 287.001L199.512 280.545Z" fill="#EAD5C0"/>
<path d="M195.462 257.123L189.007 260.008L191.892 266.464L198.348 263.579L195.462 257.123Z" fill="#EAD5C0"/>
<path d="M182.414 269.071L175.959 271.956L178.844 278.412L185.3 275.527L182.414 269.071Z" fill="#EAD5C0"/>
<path d="M169.367 281.019L162.911 283.904L165.797 290.36L172.252 287.474L169.367 281.019Z" fill="#EAD5C0"/>
<path d="M164.7 300.697L158.244 303.582L161.13 310.038L167.585 307.152L164.7 300.697Z" fill="#EAD5C0"/>
<path d="M160.033 320.375L153.577 323.26L156.463 329.716L162.918 326.83L160.033 320.375Z" fill="#EAD5C0"/>
<path d="M182.814 288.172L176.358 291.057L179.244 297.513L185.699 294.627L182.814 288.172Z" fill="#EAD5C0"/>
<path d="M182.636 302.206L176.181 305.092L179.066 311.547L185.522 308.662L182.636 302.206Z" fill="#EAD5C0"/>
<path d="M182.458 316.241L176.003 319.126L178.888 325.582L185.344 322.696L182.458 316.241Z" fill="#EAD5C0"/>
<path d="M170.24 330.266L163.784 333.151L166.67 339.607L173.125 336.721L170.24 330.266Z" fill="#EAD5C0"/>
<path d="M158.02 344.29L151.564 347.176L154.45 353.631L160.905 350.746L158.02 344.29Z" fill="#EAD5C0"/>
<path d="M189.005 333.852L182.55 336.737L185.435 343.193L191.891 340.307L189.005 333.852Z" fill="#EAD5C0"/>
<path d="M198.57 315.59L192.114 318.475L195 324.931L201.455 322.045L198.57 315.59Z" fill="#EAD5C0"/>
<path d="M171.011 212.161L164.556 215.046L167.441 221.502L173.897 218.616L171.011 212.161Z" fill="#EAD5C0"/>
<path d="M166.961 188.738L160.506 191.624L163.391 198.079L169.847 195.194L166.961 188.738Z" fill="#EAD5C0"/>
<path d="M162.912 165.316L156.456 168.202L159.341 174.657L165.797 171.772L162.912 165.316Z" fill="#EAD5C0"/>
<path d="M149.864 177.264L143.408 180.15L146.294 186.605L152.749 183.72L149.864 177.264Z" fill="#EAD5C0"/>
<path d="M136.816 189.212L130.36 192.097L133.246 198.553L139.701 195.668L136.816 189.212Z" fill="#EAD5C0"/>
<path d="M132.149 208.89L125.693 211.775L128.579 218.231L135.034 215.346L132.149 208.89Z" fill="#EAD5C0"/>
<path d="M127.482 228.568L121.026 231.453L123.912 237.909L130.367 235.024L127.482 228.568Z" fill="#EAD5C0"/>
<path d="M150.263 196.365L143.808 199.25L146.693 205.706L153.149 202.82L150.263 196.365Z" fill="#EAD5C0"/>
<path d="M150.085 210.399L143.63 213.285L146.515 219.74L152.971 216.855L150.085 210.399Z" fill="#EAD5C0"/>
<path d="M149.908 224.434L143.452 227.319L146.338 233.775L152.793 230.889L149.908 224.434Z" fill="#EAD5C0"/>
<path d="M137.689 238.459L131.233 241.344L134.119 247.8L140.574 244.914L137.689 238.459Z" fill="#EAD5C0"/>
<path d="M125.469 252.483L119.014 255.369L121.899 261.824L128.355 258.939L125.469 252.483Z" fill="#EAD5C0"/>
<path d="M156.454 242.045L149.999 244.93L152.884 251.386L159.34 248.501L156.454 242.045Z" fill="#EAD5C0"/>
<path d="M166.019 223.783L159.563 226.668L162.449 233.124L168.904 230.238L166.019 223.783Z" fill="#EAD5C0"/>
<path d="M121.074 264.983L114.618 267.869L117.504 274.324L123.959 271.439L121.074 264.983Z" fill="#EAD5C0"/>
<path d="M117.024 241.561L110.568 244.446L113.454 250.902L119.909 248.017L117.024 241.561Z" fill="#EAD5C0"/>
<path d="M112.974 218.139L106.518 221.024L109.404 227.48L115.859 224.594L112.974 218.139Z" fill="#EAD5C0"/>
<path d="M99.9262 230.087L93.4706 232.972L96.3561 239.428L102.812 236.542L99.9262 230.087Z" fill="#EAD5C0"/>
<path d="M86.8783 242.035L80.4228 244.92L83.3082 251.376L89.7638 248.49L86.8783 242.035Z" fill="#EAD5C0"/>
<path d="M82.2113 261.713L75.7558 264.598L78.6412 271.054L85.0968 268.168L82.2113 261.713Z" fill="#EAD5C0"/>
<path d="M77.5443 281.391L71.0888 284.276L73.9742 290.732L80.4298 287.846L77.5443 281.391Z" fill="#EAD5C0"/>
<path d="M100.326 249.187L93.87 252.073L96.7555 258.528L103.211 255.643L100.326 249.187Z" fill="#EAD5C0"/>
<path d="M100.148 263.222L93.6923 266.107L96.5778 272.563L103.033 269.678L100.148 263.222Z" fill="#EAD5C0"/>
<path d="M99.9701 277.257L93.5146 280.142L96.4 286.598L102.856 283.712L99.9701 277.257Z" fill="#EAD5C0"/>
<path d="M87.7514 291.281L81.2958 294.167L84.1813 300.622L90.6368 297.737L87.7514 291.281Z" fill="#EAD5C0"/>
<path d="M75.5316 305.306L69.0761 308.191L71.9615 314.647L78.4171 311.762L75.5316 305.306Z" fill="#EAD5C0"/>
<path d="M106.517 294.868L100.061 297.753L102.947 304.209L109.402 301.323L106.517 294.868Z" fill="#EAD5C0"/>
<path d="M116.081 276.605L109.626 279.491L112.511 285.946L118.967 283.061L116.081 276.605Z" fill="#EAD5C0"/>
</svg>
